<svg width="64" height="64" viewBox="0 0 64 64" fill="none" xmlns="http://www.w3.org/2000/svg">
  <rect width="64" height="64" rx="18" fill="#0F172A"/>
  <path d="M17 46V18H30.7C34.0333 18 36.55 18.7667 38.25 20.3C39.9833 21.8 40.85 23.9333 40.85 26.7C40.85 29.5 39.9667 31.7 38.2 33.3C36.4667 34.8667 33.9667 35.65 30.7 35.65H22.95V46H17ZM22.95 30.95H30.15C32.0167 30.95 33.3833 30.5833 34.25 29.85C35.1167 29.0833 35.55 27.9833 35.55 26.55C35.55 23.8167 33.75 22.45 30.15 22.45H22.95V30.95Z" fill="#F8FAFC"/>
  <path d="M42.3 46L34.9 34.25H40.75L48.15 46H42.3Z" fill="#38BDF8"/>
</svg>
